  <svg xmlns="http://www.w3.org/2000/svg" width="400" height="400" viewBox="0,0,400,400">
    <path
      d="M102.000 69.283 C 89.350 69.476,73.915 69.537,67.700 69.419 L 56.400 69.203 56.401 195.502 L 56.401 321.800 99.501 321.916 C 126.797 321.989,144.800 321.877,148.600 321.611 C 157.964 320.955,167.061 320.067,171.000 319.426 C 172.980 319.104,175.770 318.655,177.200 318.428 C 194.923 315.620,213.489 308.371,227.172 298.917 C 252.957 281.102,268.676 255.168,274.640 220.600 C 277.138 206.120,277.414 179.429,275.207 165.800 C 274.993 164.480,274.526 161.600,274.169 159.400 C 267.911 120.807,242.322 90.726,204.600 77.618 C 196.424 74.777,184.283 72.377,170.400 70.857 C 161.210 69.851,156.710 69.539,146.389 69.194 C 134.233 68.787,134.500 68.786,102.000 69.283 M139.000 124.003 C 167.331 125.121,177.956 128.410,188.228 139.240 C 210.086 162.288,209.463 226.308,187.152 249.796 C 176.242 261.281,165.609 264.740,137.262 266.023 C 132.067 266.258,127.739 266.528,127.645 266.622 C 127.551 266.716,127.232 266.593,126.937 266.348 C 126.362 265.870,126.094 124.440,126.667 123.867 C 126.991 123.542,127.456 123.547,139.000 124.003 "
      fill="#000000"
    />
    <path
      d="M122.372 68.546 C 122.247 68.680,107.307 68.863,89.172 68.953 L 56.200 69.117 56.200 195.567 L 56.200 322.017 100.600 322.206 C 125.020 322.310,146.800 322.262,149.000 322.098 C 151.200 321.934,131.265 321.800,104.700 321.800 L 56.401 321.800 56.400 195.564 L 56.400 69.328 73.900 69.364 C 83.525 69.384,104.630 69.322,120.800 69.227 C 136.970 69.131,151.640 69.168,153.400 69.309 C 155.579 69.483,156.090 69.455,155.000 69.221 C 153.121 68.818,122.707 68.188,122.372 68.546 M161.800 69.980 C 165.319 70.446,171.228 70.767,169.707 70.408 C 168.995 70.241,166.385 70.004,163.907 69.883 C 160.830 69.732,160.162 69.762,161.800 69.980 M173.800 71.223 C 174.680 71.405,176.120 71.540,177.000 71.524 C 178.567 71.494,178.559 71.487,176.600 71.182 C 173.756 70.739,171.612 70.770,173.800 71.223 M181.800 72.423 C 182.680 72.605,183.940 72.744,184.600 72.731 C 185.644 72.711,185.592 72.665,184.200 72.377 C 183.320 72.195,182.060 72.056,181.400 72.069 C 180.356 72.089,180.408 72.135,181.800 72.423 M186.600 73.172 C 187.040 73.352,188.390 73.608,189.600 73.741 C 190.952 73.890,191.415 73.857,190.800 73.656 C 189.409 73.202,185.597 72.762,186.600 73.172 M193.000 74.355 C 194.129 74.814,197.136 75.240,196.400 74.836 C 196.070 74.655,194.990 74.400,194.000 74.268 C 192.921 74.125,192.520 74.160,193.000 74.355 M198.000 75.528 C 198.330 75.727,199.230 76.002,200.000 76.138 C 200.871 76.293,201.173 76.255,200.800 76.039 C 199.969 75.558,197.219 75.056,198.000 75.528 M202.800 77.000 C 204.626 77.703,205.345 77.693,203.800 76.986 C 203.140 76.683,202.330 76.442,202.000 76.448 C 201.670 76.455,202.030 76.703,202.800 77.000 M205.600 78.000 C 205.930 78.213,206.470 78.388,206.800 78.388 C 207.333 78.388,207.333 78.345,206.800 78.000 C 206.470 77.787,205.930 77.612,205.600 77.612 C 205.067 77.612,205.067 77.655,205.600 78.000 M207.633 78.558 C 207.781 78.698,210.073 79.692,214.400 81.492 C 215.170 81.812,215.620 81.906,215.400 81.701 C 215.180 81.496,213.439 80.670,211.531 79.864 C 208.370 78.530,207.185 78.133,207.633 78.558 M216.051 82.185 C 216.153 82.286,217.848 83.207,219.818 84.230 C 246.501 98.093,265.584 122.028,272.238 149.980 C 272.628 151.618,273.014 152.759,273.095 152.514 C 273.177 152.269,272.779 150.361,272.210 148.275 C 264.622 120.421,247.428 98.798,221.732 84.794 C 217.316 82.387,215.351 81.485,216.051 82.185 M126.667 123.867 C 125.951 124.583,126.380 265.887,127.100 266.432 C 127.696 266.882,127.725 266.878,127.300 266.401 C 126.904 265.957,126.800 251.095,126.800 194.943 L 126.800 124.046 134.700 124.232 C 139.045 124.334,144.670 124.588,147.200 124.797 C 149.730 125.005,153.240 125.283,155.000 125.413 C 187.530 127.821,203.536 150.014,203.600 192.800 C 203.659 232.426,189.731 256.779,163.600 262.735 C 155.944 264.481,151.362 264.979,137.233 265.604 C 132.301 265.822,128.176 266.090,128.066 266.200 C 127.957 266.310,128.302 266.396,128.833 266.391 C 164.883 266.060,181.397 260.084,192.182 243.466 C 207.861 219.308,208.178 167.856,192.789 144.973 C 181.939 128.839,167.846 124.168,128.367 123.620 C 127.578 123.609,126.813 123.720,126.667 123.867 M273.357 154.600 C 273.501 155.480,273.890 157.820,274.222 159.800 C 274.553 161.780,274.998 164.480,275.210 165.800 C 277.775 181.768,277.024 210.250,273.623 226.000 C 273.196 227.978,273.103 229.031,273.378 228.755 C 273.858 228.275,275.823 216.830,276.426 211.000 C 277.822 197.509,277.437 177.173,275.563 165.400 C 274.512 158.794,273.514 153.386,273.312 153.200 C 273.192 153.090,273.212 153.720,273.357 154.600 M272.061 232.728 C 263.255 268.633,238.782 297.390,206.108 310.227 C 203.417 311.284,201.283 312.216,201.365 312.299 C 202.107 313.041,219.451 304.647,225.400 300.667 C 249.453 284.574,268.202 257.025,273.015 230.700 C 273.524 227.917,272.933 229.174,272.061 232.728 M301.600 252.819 C 266.599 256.398,254.485 300.662,283.407 319.296 C 310.872 336.990,346.162 318.027,344.254 286.600 C 343.218 269.543,328.222 254.439,310.890 252.996 C 305.351 252.535,304.529 252.520,301.600 252.819 M198.800 312.888 C 198.030 313.116,197.605 313.379,197.857 313.471 C 198.108 313.563,198.918 313.374,199.657 313.051 C 201.219 312.370,200.809 312.291,198.800 312.888 M195.256 314.059 C 194.517 314.272,193.987 314.520,194.079 314.612 C 194.281 314.814,197.200 314.037,197.200 313.781 C 197.200 313.546,196.882 313.591,195.256 314.059 M188.400 315.979 C 186.090 316.585,183.390 317.278,182.400 317.518 L 180.600 317.955 182.400 317.739 C 184.248 317.517,193.245 315.288,193.559 314.975 C 193.907 314.627,192.521 314.896,188.400 315.979 M176.640 318.442 C 175.342 318.631,174.172 318.897,174.040 319.032 C 173.723 319.356,178.371 318.783,179.400 318.371 C 180.387 317.976,179.715 317.993,176.640 318.442 M169.040 319.642 C 167.742 319.831,166.573 320.093,166.443 320.224 C 166.121 320.546,171.194 319.968,172.200 319.569 L 173.000 319.251 172.200 319.274 C 171.760 319.287,170.338 319.452,169.040 319.642 M157.452 320.837 C 155.281 321.016,153.396 321.271,153.264 321.402 C 153.015 321.652,158.704 321.306,163.200 320.799 L 165.800 320.505 163.600 320.509 C 162.390 320.510,159.623 320.658,157.452 320.837 "
      fill="#87bc25"
    />
  </svg>